HIERARCHY
ROOT hip
{
	OFFSET 0.000000 0.000000 0.000000 
	CHANNELS 6 Xposition Yposition Zposition Xrotation Zrotation Yrotation
	JOINT abdomen
	{
		OFFSET 0.000000 3.402643 0.000000 
		CHANNELS 3 Xrotation Zrotation Yrotation
		JOINT chest
		{
			OFFSET 0.000000 8.438565 -0.680529 
			CHANNELS 3 Xrotation Zrotation Yrotation
			JOINT neck
			{
				OFFSET 0.000000 10.207942 -0.272212 
				CHANNELS 3 Xrotation Zrotation Yrotation
				JOINT head
				{
					OFFSET 0.000000 3.130431 0.000000 
					CHANNELS 3 Xrotation Zrotation Yrotation
					End Site
					{
						OFFSET 0.000000 3.130435 0.000000 
					}
				}
			}
			JOINT lCollar
			{
				OFFSET 3.470700 6.669187 -0.816635 
				CHANNELS 3 Yrotation Zrotation Xrotation
				JOINT lShldr
				{
					OFFSET 3.198488 0.000000 0.000000 
					CHANNELS 3 Zrotation Yrotation Xrotation
					JOINT lForeArm
					{
						OFFSET 10.139888 0.000000 0.000000 
						CHANNELS 3 Yrotation Zrotation Xrotation
						JOINT lHand
						{
							OFFSET 8.370511 0.000000 0.000000 
							CHANNELS 3 Zrotation Yrotation Xrotation
							End Site
							{
								OFFSET 4.083176 0.000000 0.000000 
							}
						}
					}
				}
			}
			JOINT rCollar
			{
				OFFSET -3.470700 6.669187 -0.816635 
				CHANNELS 3 Yrotation Zrotation Xrotation
				JOINT rShldr
				{
					OFFSET -3.198488 0.000000 0.000000 
					CHANNELS 3 Zrotation Yrotation Xrotation
					JOINT rForeArm
					{
						OFFSET -10.139888 0.000000 0.000000 
						CHANNELS 3 Yrotation Zrotation Xrotation
						JOINT rHand
						{
							OFFSET -8.370511 0.000000 0.000000 
							CHANNELS 3 Zrotation Yrotation Xrotation
							End Site
							{
								OFFSET -4.083176 0.000000 0.000000 
							}
						}
					}
				}
			}
		}
	}
	JOINT lThigh
	{
		OFFSET 5.308129 -1.633274 1.361059 
		CHANNELS 3 Xrotation Zrotation Yrotation
		JOINT lShin
		{
			OFFSET -2.041588 -20.007561 0.000000 
			CHANNELS 3 Xrotation Zrotation Yrotation
			JOINT lFoot
			{
				OFFSET 0.000000 -19.190928 -1.224953 
				CHANNELS 3 Xrotation Yrotation Zrotation
				End Site
				{
					OFFSET 0.000000 -2.449906 4.627600 
				}
			}
		}
	}
	JOINT rThigh
	{
		OFFSET -5.308129 -1.633274 1.361059 
		CHANNELS 3 Xrotation Zrotation Yrotation
		JOINT rShin
		{
			OFFSET 2.041588 -20.007561 0.000000 
			CHANNELS 3 Xrotation Zrotation Yrotation
			JOINT rFoot
			{
				OFFSET 0.000000 -19.190928 -1.224953 
				CHANNELS 3 Xrotation Yrotation Zrotation
				End Site
				{
					OFFSET 0.000000 -2.449906 4.627600 
				}
			}
		}
	}
}
MOTION
Frames: 10
Frame Time: 0.016667
0.726495 48.405128 0.669404 -5.140269 3.139145 5.623895 0.000000 0.000000 0.000000 14.251825 3.229719 9.175192 -8.457032 0.000000 0.000000 9.396645 -1.934991 29.217230 -2.812533 -0.096698 -0.019508 -64.677452 -2.576401 -48.055950 -62.080326 -41.428303 -9.602301 -12.504161 -9.883121 -17.367567 2.792995 0.077173 -0.019521 45.610401 19.588409 -60.620743 45.810608 13.409146 -0.128275 15.794580 32.782772 -23.952579 3.864860 17.524645 11.332066 5.356836 -6.277234 0.814985 0.934740 -2.032328 -20.591902 10.139673 -23.392391 -25.795971 15.228938 8.635583 1.556387 -9.251163 2.628195 5.953930 
0.765805 48.392662 0.682987 -5.223631 3.320156 6.231712 0.000000 0.000000 0.000000 14.256630 3.230515 9.086895 -8.457032 0.000000 0.000000 9.484584 -1.934672 28.777445 -2.812533 -0.096698 -0.019508 -64.694824 -2.324583 -48.583755 -61.882580 -41.437191 -9.574481 -11.887902 -9.757648 -18.108572 2.792995 0.077173 -0.019521 47.147701 20.033182 -58.634830 47.877510 14.204051 -0.379873 16.352894 32.625610 -22.200279 3.952456 17.259224 11.043625 5.363888 -6.273932 0.989547 0.878638 -2.544183 -20.407639 10.404289 -23.666634 -25.885489 15.428103 8.823389 1.620059 -9.246187 2.127594 6.028460 
0.809423 48.381050 0.705639 -5.433921 3.482310 6.653221 0.000000 0.000000 0.000000 14.163777 3.231304 8.999146 -8.457032 0.000000 0.000000 9.753033 -1.846852 28.414448 -2.812533 -0.096698 -0.019508 -64.883339 -2.246265 -48.941288 -62.097340 -41.454914 -9.947840 -12.683744 -9.797500 -18.411304 2.792995 0.077173 -0.019521 48.686459 20.166462 -56.695972 49.936901 14.993420 -0.647627 17.576324 32.336262 -19.660215 3.963252 17.096207 10.749038 5.364048 -6.274094 1.009036 0.895308 -2.865091 -20.324627 10.871896 -23.685074 -26.063095 15.301541 8.686435 1.589411 -9.202908 1.609886 6.266227 
0.853038 48.369438 0.728294 -5.632035 3.643993 7.075371 0.000000 0.000000 0.000000 14.080139 3.232170 8.901099 -8.457032 0.000000 0.000000 10.010256 -1.758153 28.060966 -2.812533 -0.096698 -0.019508 -65.061905 -2.174404 -49.295799 -62.315239 -41.471611 -10.326911 -13.474757 -9.833626 -18.709751 2.792995 0.077173 -0.019521 50.223572 20.261276 -54.758663 51.994049 15.781441 -0.944936 18.785149 32.007931 -17.123507 3.973512 16.931768 10.474230 5.363995 -6.273988 0.999292 0.910375 -3.167867 -20.234909 11.343149 -23.706833 -26.221266 15.165209 8.546523 1.557624 -9.155719 1.099494 6.496802 
0.868668 48.329834 0.738800 -5.866534 3.500010 6.888348 0.000000 0.000000 0.000000 14.164922 3.312186 9.625896 -8.457032 0.000000 0.000000 10.190873 -1.676059 27.795996 -2.812533 -0.096698 -0.019508 -65.148041 -2.358680 -49.914299 -62.507309 -41.706448 -10.487502 -13.832228 -9.931308 -18.856451 2.792995 0.077173 -0.019521 51.337399 20.212337 -53.112919 53.272167 16.272108 -1.204614 18.813156 31.395866 -15.501051 4.236879 17.028889 10.864432 5.356074 -6.179048 1.071223 0.772095 -3.344091 -20.228456 11.442829 -23.709764 -25.508884 15.077902 8.545356 1.469677 -9.126058 0.744812 6.640471 
0.884300 48.290234 0.749305 -6.100661 3.355944 6.691619 0.000000 0.000000 0.000000 14.252388 3.391196 10.360459 -8.457032 0.000000 0.000000 10.365460 -1.584849 27.530798 -2.812533 -0.096698 -0.019508 -65.233398 -2.547172 -50.523335 -62.712891 -41.931026 -10.656407 -14.186255 -10.040142 -19.001581 2.792995 0.077173 -0.019521 52.450348 20.131004 -51.476593 54.559605 16.768820 -1.470830 18.840191 30.778786 -13.870934 4.490318 17.144772 11.266448 5.334980 -6.069488 1.163886 0.640924 -3.547742 -20.201008 11.542575 -23.721188 -24.807753 14.999867 8.547070 1.392907 -9.126013 0.385703 6.750774 
0.918394 48.244686 0.761956 -6.286986 3.267528 6.857342 0.000000 0.000000 0.000000 14.250030 3.479987 10.997566 -8.457032 0.000000 0.000000 10.450704 -1.497840 26.914015 -2.812533 -0.096698 -0.019508 -65.169304 -2.571802 -52.101254 -62.110306 -41.804443 -10.557317 -14.113840 -9.679034 -18.833969 2.792995 0.077173 -0.019521 53.840073 19.816013 -49.670021 56.127163 17.516502 -1.603283 18.623194 29.967394 -11.243773 4.774517 17.079067 11.362810 5.335584 -6.070224 1.241848 0.521703 -3.856649 -20.055178 11.741212 -23.675974 -24.213646 14.973726 8.566756 1.120893 -9.097271 0.051881 6.893932 
0.952489 48.199139 0.774607 -6.463511 3.179078 7.032828 0.000000 0.000000 0.000000 14.249722 3.567937 11.634697 -8.457032 0.000000 0.000000 10.543497 -1.409494 26.307316 -2.812533 -0.096698 -0.019508 -65.094650 -2.582453 -53.677654 -61.508717 -41.695572 -10.448429 -14.036077 -9.327229 -18.663580 2.792995 0.077173 -0.019521 55.211105 19.480860 -47.881947 57.696068 18.256250 -1.755690 18.362982 29.172684 -8.634023 5.047564 17.000893 11.466700 5.336265 -6.071061 1.329555 0.422246 -4.175131 -19.911819 11.967037 -23.637451 -23.622459 14.968479 8.588941 0.859594 -9.072572 -0.287965 7.045260 
0.980855 48.157898 0.793674 -6.716578 3.159294 7.091329 0.000000 0.000000 0.000000 14.250949 3.477898 11.173602 -8.457032 0.000000 0.000000 11.156372 -1.144244 26.568098 -2.812533 -0.096698 -0.019508 -66.215492 -2.453292 -50.721153 -62.997498 -42.392689 -10.861744 -8.503609 -9.836247 -18.410749 2.792995 0.077173 -0.019521 57.861290 19.372789 -43.043949 60.387367 19.434139 -2.427379 14.174352 28.886810 -4.855365 5.298461 16.964695 11.226357 5.343265 -6.067719 1.494403 0.353277 -4.435916 -19.930964 12.425108 -23.753759 -23.457764 14.963943 8.748569 0.615308 -9.156313 -0.822538 7.096080 
1.009222 48.116657 0.812739 -6.960603 3.129754 7.159580 0.000000 0.000000 0.000000 14.255495 3.396926 10.712541 -8.457032 0.000000 0.000000 11.771646 -0.880170 26.829504 -2.812533 -0.096698 -0.019508 -67.322823 -2.256004 -47.764664 -64.509628 -43.094387 -11.304046 -2.971111 -10.364997 -18.209711 2.792995 0.077173 -0.019521 60.486454 19.060034 -38.224667 63.110203 20.581886 -3.160914 9.966211 28.838285 -1.083136 5.534351 16.919157 10.962481 5.343166 -6.057761 1.670131 0.291566 -4.706253 -19.953798 12.893227 -23.861795 -23.263916 14.981252 8.926444 0.385044 -9.228730 -1.368422 7.129820 
